<mxfile host="app.diagrams.net" modified="2023-09-21T02:01:59.653Z" agent="Mozilla/5.0 (Macintosh; Intel Mac OS X 10_15_7) AppleWebKit/537.36 (KHTML, like Gecko) Chrome/116.0.0.0 Safari/537.36" version="21.7.5" etag="C8htFfm9aFoE2DXLr2r9" type="github">
  <diagram name="Page-1" id="ZMuL4AvfFv5sjU8PT4EF">
    <mxGraphModel>
      <root>
        <mxCell id="0" />
        <mxCell id="1" parent="0" />
      </root>
    </mxGraphModel>
  </diagram>
</mxfile>
